<svg width="618" height="305" viewBox="0 0 618 305" fill="none" xmlns="http://www.w3.org/2000/svg">
<path d="M9.719 130V39.76H26.231L56.695 95.184L87.031 39.76H103.287V130H85.239V74.96L61.943 116.432H50.807L27.639 75.344V130H9.719ZM141.172 131.408C136.479 131.408 132.34 130.512 128.756 128.72C125.172 126.928 122.313 124.496 120.18 121.424C118.132 118.352 117.108 114.896 117.108 111.056C117.108 106.533 118.303 102.907 120.692 100.176C123.081 97.4453 126.964 95.5253 132.34 94.416C137.716 93.2213 144.841 92.624 153.716 92.624H158.324V90.448C158.324 86.6933 157.471 84.048 155.764 82.512C154.057 80.8907 151.156 80.08 147.06 80.08C143.647 80.08 140.02 80.6347 136.18 81.744C132.425 82.768 128.671 84.3467 124.916 86.48L119.668 73.552C121.887 72.1013 124.575 70.7787 127.732 69.584C130.975 68.3893 134.345 67.4933 137.844 66.896C141.343 66.2133 144.671 65.872 147.828 65.872C157.556 65.872 164.809 68.0907 169.588 72.528C174.367 76.88 176.756 83.664 176.756 92.88V130H158.708V120.528C157.428 123.856 155.252 126.501 152.18 128.464C149.193 130.427 145.524 131.408 141.172 131.408ZM145.524 118.48C149.108 118.48 152.137 117.243 154.612 114.768C157.087 112.293 158.324 109.093 158.324 105.168V102.608H153.844C147.273 102.608 142.623 103.205 139.892 104.4C137.161 105.509 135.796 107.472 135.796 110.288C135.796 112.677 136.607 114.64 138.228 116.176C139.935 117.712 142.367 118.48 145.524 118.48ZM191.174 130V67.152H210.118V78.032C213.105 70.6933 219.505 66.64 229.318 65.872L234.95 65.488L236.102 81.744L225.222 82.896C215.665 83.8347 210.886 88.6987 210.886 97.488V130H191.174ZM243.924 130V39.76H263.252V93.136H263.508L286.676 67.152H309.588L282.964 97.232L310.868 130H287.572L263.508 102.864H263.252V130H243.924ZM346.939 131.408C339.515 131.408 333.115 130.085 327.739 127.44C322.448 124.709 318.352 120.912 315.451 116.048C312.635 111.099 311.227 105.296 311.227 98.64C311.227 92.1547 312.592 86.48 315.323 81.616C318.139 76.6667 321.936 72.8267 326.715 70.096C331.579 67.28 337.168 65.872 343.483 65.872C352.614 65.872 359.867 68.7733 365.243 74.576C370.619 80.2933 373.307 88.0587 373.307 97.872V102.736H329.659C330.342 107.685 332.134 111.312 335.035 113.616C338.022 115.835 342.118 116.944 347.323 116.944C350.736 116.944 354.192 116.432 357.691 115.408C361.19 114.384 364.347 112.805 367.163 110.672L372.283 123.6C369.126 125.989 365.243 127.909 360.635 129.36C356.112 130.725 351.547 131.408 346.939 131.408ZM344.251 78.672C340.155 78.672 336.827 79.9093 334.267 82.384C331.792 84.8587 330.256 88.3147 329.659 92.752H357.307C356.795 83.3653 352.443 78.672 344.251 78.672ZM415.022 131.408C397.358 131.408 388.526 122.832 388.526 105.68V81.616H376.622V67.152H388.526V48.72H407.854V67.152H426.414V81.616H407.854V104.912C407.854 108.496 408.665 111.184 410.286 112.976C411.993 114.768 414.681 115.664 418.35 115.664C419.459 115.664 420.611 115.536 421.806 115.28C423.086 115.024 424.451 114.683 425.902 114.256L428.718 128.336C426.926 129.275 424.793 130 422.318 130.512C419.843 131.109 417.411 131.408 415.022 131.408ZM435.156 54.992V36.944H456.02V54.992H435.156ZM435.924 130V67.152H455.252V130H435.924ZM470.174 130V67.152H489.118V76.368C491.251 72.9547 494.11 70.352 497.694 68.56C501.278 66.768 505.289 65.872 509.726 65.872C517.15 65.872 522.697 68.048 526.366 72.4C530.035 76.6667 531.87 83.28 531.87 92.24V130H512.542V93.136C512.542 88.784 511.731 85.6693 510.11 83.792C508.489 81.8293 506.099 80.848 502.942 80.848C498.846 80.848 495.561 82.128 493.086 84.688C490.697 87.248 489.502 90.6613 489.502 94.928V130H470.174ZM576.507 154.448C570.448 154.448 564.774 153.808 559.483 152.528C554.278 151.248 549.712 149.243 545.787 146.512L551.035 133.328C554.448 135.461 558.288 137.083 562.555 138.192C566.907 139.387 571.003 139.984 574.843 139.984C585.766 139.984 591.227 134.949 591.227 124.88V117.712C589.52 120.955 586.832 123.557 583.163 125.52C579.494 127.483 575.483 128.464 571.131 128.464C565.499 128.464 560.592 127.184 556.411 124.624C552.23 121.979 548.987 118.309 546.683 113.616C544.379 108.923 543.227 103.419 543.227 97.104C543.227 90.8747 544.379 85.4133 546.683 80.72C548.987 76.0267 552.23 72.4 556.411 69.84C560.592 67.1947 565.499 65.872 571.131 65.872C575.654 65.872 579.707 66.8533 583.291 68.816C586.875 70.7787 589.52 73.3813 591.227 76.624V67.152H610.043V122.704C610.043 133.285 607.184 141.221 601.467 146.512C595.75 151.803 587.43 154.448 576.507 154.448ZM576.891 114C581.158 114 584.571 112.507 587.131 109.52C589.776 106.533 591.099 102.395 591.099 97.104C591.099 91.8133 589.776 87.7173 587.131 84.816C584.571 81.8293 581.158 80.336 576.891 80.336C572.539 80.336 569.083 81.8293 566.523 84.816C563.963 87.7173 562.683 91.8133 562.683 97.104C562.683 102.395 563.963 106.533 566.523 109.52C569.083 112.507 572.539 114 576.891 114Z" fill="#4880FF"/>
<path d="M208.151 260V169.76H227.991V205.984H269.975V169.76H289.815V260H269.975V222.496H227.991V260H208.151ZM339.002 261.408C331.578 261.408 325.178 260.085 319.802 257.44C314.511 254.709 310.415 250.912 307.514 246.048C304.698 241.099 303.29 235.296 303.29 228.64C303.29 222.155 304.655 216.48 307.385 211.616C310.202 206.667 313.999 202.827 318.778 200.096C323.642 197.28 329.231 195.872 335.546 195.872C344.676 195.872 351.93 198.773 357.306 204.576C362.682 210.293 365.37 218.059 365.37 227.872V232.736H321.722C322.404 237.685 324.196 241.312 327.098 243.616C330.084 245.835 334.18 246.944 339.386 246.944C342.799 246.944 346.255 246.432 349.754 245.408C353.252 244.384 356.41 242.805 359.226 240.672L364.346 253.6C361.188 255.989 357.306 257.909 352.698 259.36C348.175 260.725 343.61 261.408 339.002 261.408ZM336.314 208.672C332.218 208.672 328.89 209.909 326.33 212.384C323.855 214.859 322.319 218.315 321.722 222.752H349.37C348.858 213.365 344.506 208.672 336.314 208.672ZM400.036 261.408C391.929 261.408 385.998 259.317 382.244 255.136C378.489 250.869 376.612 244.555 376.612 236.192V169.76H395.94V235.424C395.94 242.251 398.969 245.664 405.028 245.664C405.966 245.664 406.862 245.621 407.716 245.536C408.654 245.451 409.55 245.28 410.404 245.024L410.148 260C406.905 260.939 403.534 261.408 400.036 261.408ZM419.237 283.04V197.152H438.181V206.496C439.887 203.253 442.49 200.693 445.989 198.816C449.573 196.853 453.583 195.872 458.021 195.872C463.482 195.872 468.261 197.195 472.357 199.84C476.538 202.485 479.781 206.24 482.085 211.104C484.389 215.968 485.541 221.771 485.541 228.512C485.541 235.253 484.389 241.099 482.085 246.048C479.781 250.912 476.538 254.709 472.357 257.44C468.261 260.085 463.482 261.408 458.021 261.408C453.839 261.408 449.999 260.512 446.501 258.72C443.087 256.928 440.442 254.539 438.565 251.552V283.04H419.237ZM452.261 246.944C456.357 246.944 459.685 245.451 462.245 242.464C464.805 239.477 466.085 234.827 466.085 228.512C466.085 222.283 464.805 217.717 462.245 214.816C459.685 211.829 456.357 210.336 452.261 210.336C448.079 210.336 444.709 211.829 442.149 214.816C439.589 217.717 438.309 222.283 438.309 228.512C438.309 234.827 439.589 239.477 442.149 242.464C444.709 245.451 448.079 246.944 452.261 246.944ZM530.002 261.408C522.578 261.408 516.178 260.085 510.802 257.44C505.511 254.709 501.415 250.912 498.514 246.048C495.698 241.099 494.29 235.296 494.29 228.64C494.29 222.155 495.655 216.48 498.385 211.616C501.202 206.667 504.999 202.827 509.778 200.096C514.642 197.28 520.231 195.872 526.546 195.872C535.676 195.872 542.93 198.773 548.306 204.576C553.682 210.293 556.37 218.059 556.37 227.872V232.736H512.722C513.404 237.685 515.196 241.312 518.098 243.616C521.084 245.835 525.18 246.944 530.386 246.944C533.799 246.944 537.255 246.432 540.754 245.408C544.252 244.384 547.41 242.805 550.226 240.672L555.346 253.6C552.188 255.989 548.306 257.909 543.698 259.36C539.175 260.725 534.61 261.408 530.002 261.408ZM527.314 208.672C523.218 208.672 519.89 209.909 517.33 212.384C514.855 214.859 513.319 218.315 512.722 222.752H540.37C539.858 213.365 535.506 208.672 527.314 208.672ZM567.612 260V197.152H586.556V208.032C589.542 200.693 595.942 196.64 605.756 195.872L611.388 195.488L612.54 211.744L601.66 212.896C592.102 213.835 587.324 218.699 587.324 227.488V260H567.612Z" fill="#202224"/>
</svg>
